<?xml version="1.0" standalone="no"?>
<!DOCTYPE svg PUBLIC "-//W3C//DTD SVG 20010904//EN"
 "http://www.w3.org/TR/2001/REC-SVG-20010904/DTD/svg10.dtd">
<svg version="1.0" xmlns="http://www.w3.org/2000/svg"
 width="261.000000pt" height="261.000000pt" viewBox="0 0 261.000000 261.000000"
 preserveAspectRatio="xMidYMid meet">
<metadata>
Created by potrace 1.14, written by Peter Selinger 2001-2017
</metadata>
<g transform="translate(0.000000,261.000000) scale(0.100000,-0.100000)"
fill="#000000" stroke="none">
<path d="M2400 2574 c0 -5 -23 -20 -50 -33 -28 -14 -50 -29 -50 -33 0 -4 -7
-8 -15 -8 -8 0 -23 -9 -32 -20 -10 -11 -22 -20 -27 -20 -5 0 -32 -15 -60 -34
-28 -19 -55 -34 -60 -34 -5 0 -13 -7 -18 -16 -5 -9 -13 -14 -18 -11 -4 3 -11
-2 -14 -11 -3 -8 -10 -12 -16 -9 -5 3 -10 1 -10 -4 0 -6 -5 -11 -11 -11 -6 0
-17 -7 -26 -15 -8 -8 -19 -13 -24 -10 -5 4 -9 2 -9 -3 0 -10 -125 -92 -141
-92 -5 0 -9 -4 -9 -10 0 -5 -16 -16 -35 -24 -19 -8 -35 -20 -35 -26 0 -6 -4
-8 -10 -5 -5 3 -10 1 -10 -5 0 -7 -7 -9 -16 -6 -8 3 -12 2 -9 -4 3 -6 -1 -10
-10 -10 -8 0 -18 -7 -21 -15 -4 -8 -11 -15 -16 -15 -5 0 -23 -9 -39 -21 -16
-11 -29 -17 -29 -14 0 4 -7 -1 -16 -9 -8 -9 -20 -13 -26 -10 -6 4 -8 2 -5 -3
7 -11 -9 -22 -26 -19 -5 0 -13 -7 -18 -16 -6 -10 -14 -18 -20 -18 -10 0 -31
-12 -159 -96 -41 -26 -88 -55 -105 -64 -43 -23 -79 -44 -85 -50 -9 -9 -65 -34
-73 -32 -4 1 -10 -5 -13 -13 -4 -8 -14 -15 -23 -15 -13 0 -18 9 -20 33 -4 56
-7 76 -14 83 -4 4 -1 14 6 22 8 11 8 14 0 9 -8 -5 -11 6 -11 35 0 24 -3 52 -7
63 -17 47 -17 49 2 34 12 -9 11 -6 -3 11 -12 14 -20 30 -17 37 2 6 -1 14 -7
18 -13 8 -50 -22 -50 -42 0 -7 -4 -13 -10 -13 -5 0 -10 -5 -10 -11 0 -6 -13
-30 -29 -54 -16 -24 -32 -53 -36 -64 -3 -12 -11 -21 -16 -21 -6 0 -7 -4 -4
-10 3 -5 2 -10 -3 -10 -5 0 -12 -8 -15 -17 -4 -10 -20 -40 -37 -68 -17 -27
-35 -60 -40 -72 -5 -13 -14 -23 -20 -23 -6 0 -9 -4 -5 -9 3 -5 -2 -17 -11 -25
-8 -9 -13 -16 -10 -16 6 0 -41 -77 -54 -90 -3 -3 -6 -12 -8 -20 -2 -8 -9 -22
-16 -30 -17 -19 -87 -147 -87 -157 0 -4 -7 -12 -15 -16 -8 -4 -14 -15 -14 -23
0 -9 -5 -12 -12 -8 -7 4 -10 4 -6 -1 4 -4 2 -17 -4 -29 -7 -11 -11 -24 -10
-28 1 -5 -3 -8 -9 -8 -5 0 -17 -15 -25 -33 -29 -61 -45 -87 -55 -87 -5 0 -8
-3 -7 -7 3 -14 -21 -63 -31 -63 -5 0 -12 -14 -16 -31 -4 -17 -13 -33 -20 -35
-7 -3 -20 -23 -30 -45 -10 -21 -22 -39 -27 -39 -5 0 -6 -4 -3 -10 3 -5 2 -10
-3 -10 -5 0 -15 -13 -22 -30 -7 -16 -17 -30 -22 -30 -5 0 -7 -4 -4 -8 3 -5 -4
-16 -15 -25 -11 -10 -17 -21 -14 -26 2 -5 -2 -11 -10 -15 -8 -3 -15 -11 -15
-18 0 -7 -14 -29 -30 -48 -28 -33 -45 -89 -19 -63 8 8 20 8 35 3 17 -7 24 -6
24 3 0 8 4 7 10 -3 6 -10 10 -11 10 -2 0 14 21 12 33 -3 6 -7 10 -6 13 2 3 7
12 9 20 6 7 -3 11 -10 7 -17 -3 -6 2 -4 13 5 12 11 26 14 39 9 11 -4 26 -5 34
-2 10 4 12 1 6 -9 -7 -11 -6 -12 6 -3 8 6 23 9 34 7 11 -2 30 -4 43 -4 14 1
21 -3 16 -10 -4 -8 0 -8 15 0 14 8 21 8 21 1 0 -7 6 -8 19 -1 10 6 22 7 26 3
3 -4 12 -7 18 -7 7 -1 11 -7 9 -15 -2 -11 1 -11 11 2 12 15 17 15 41 3 14 -8
25 -11 22 -7 -3 5 15 3 39 -2 25 -6 41 -15 38 -21 -3 -5 0 -5 6 1 15 14 75 -1
106 -25 18 -15 19 -15 6 1 -13 17 -11 17 25 4 22 -7 45 -11 52 -9 6 3 12 -4
13 -14 0 -10 3 -13 5 -7 5 12 54 6 54 -7 0 -4 9 -6 20 -4 11 2 25 -2 32 -8 7
-7 18 -12 23 -12 24 0 105 -28 105 -37 0 -5 5 -6 10 -3 6 3 10 1 10 -4 0 -6 3
-10 8 -9 4 1 23 -4 42 -11 61 -24 72 -24 60 -2 -5 11 -11 31 -12 45 -1 15 -6
26 -11 26 -5 0 -3 8 4 17 12 14 12 16 0 8 -11 -6 -13 -4 -8 8 4 10 1 17 -6 18
-7 0 -3 4 8 9 14 6 15 9 5 9 -10 1 -17 11 -18 26 -1 14 -4 36 -5 50 -1 14 -6
25 -11 25 -5 0 -3 6 3 14 12 14 5 46 -9 46 -5 0 -8 12 -6 28 1 15 -1 35 -6 45
-5 9 -6 17 -4 17 3 0 15 -18 27 -41 11 -23 15 -38 8 -34 -8 5 -10 4 -5 -3 4
-7 14 -12 22 -12 10 0 12 -5 7 -12 -12 -20 -12 -37 -1 -45 7 -3 8 -1 4 5 -4 7
-1 12 10 12 11 0 15 -6 11 -19 -3 -14 -1 -18 9 -14 8 3 14 1 14 -5 0 -6 -6
-13 -12 -15 -8 -3 -7 -6 4 -6 9 -1 20 -6 24 -13 4 -6 3 -8 -4 -4 -6 3 5 -19
23 -50 19 -31 32 -61 29 -65 -3 -5 0 -9 5 -9 16 0 13 -21 -6 -44 -18 -21 -18
-21 5 -2 12 11 23 16 23 13 1 -4 2 -11 3 -16 0 -5 4 -13 8 -17 4 -4 2 -14 -5
-22 -10 -13 -9 -14 1 -8 8 5 17 -5 27 -31 9 -21 20 -46 26 -57 8 -14 8 -16 -3
-10 -8 4 -6 0 3 -12 9 -10 15 -29 14 -41 -1 -12 2 -20 7 -17 7 4 10 -18 7 -42
0 -4 5 -11 13 -15 11 -8 11 -10 0 -18 -11 -7 -11 -9 1 -14 15 -5 50 27 40 37
-4 3 1 6 10 6 9 0 19 5 23 12 5 7 2 9 -7 4 -8 -4 -2 4 13 17 15 14 24 28 21
31 -4 3 1 6 11 6 9 0 15 4 12 9 -3 4 8 21 24 37 16 16 30 32 30 36 0 12 52 63
61 61 4 -2 6 4 3 11 -3 9 5 22 20 31 14 10 26 22 26 28 0 5 15 25 34 43 19 18
31 35 28 38 -3 3 2 6 11 6 9 0 19 5 23 12 5 7 3 8 -6 3 -9 -6 -11 -4 -6 4 5 7
15 10 23 6 14 -5 14 -3 2 12 -12 15 -12 16 4 10 11 -4 16 -3 12 3 -3 6 -1 10
5 10 6 0 8 5 5 10 -3 6 1 10 10 10 9 0 15 5 13 11 -2 6 22 37 53 69 31 32 55
61 51 64 -3 3 2 6 12 6 9 0 15 4 11 9 -3 6 4 15 16 21 11 7 19 14 16 16 -2 3
20 30 49 62 30 31 54 60 54 64 0 5 7 8 15 8 8 0 14 4 13 9 -3 9 -1 13 81 101
28 30 51 58 51 63 0 4 5 5 10 2 6 -3 10 1 10 9 0 9 9 21 20 28 11 7 20 19 20
26 0 9 7 11 23 7 14 -4 18 -3 9 3 -9 6 -4 17 22 45 18 20 37 33 40 29 4 -3 4
1 0 11 -5 14 -2 16 12 11 11 -4 16 -4 12 1 -10 11 10 45 27 45 7 0 17 5 21 12
5 7 2 9 -7 4 -8 -4 -7 -2 2 6 15 12 19 19 19 36 0 4 5 0 10 -8 8 -12 10 -11
10 7 0 12 7 28 15 36 8 8 12 17 9 20 -7 7 -149 -6 -149 -13 0 -1 -13 -3 -30
-5 -16 -1 -30 -3 -30 -4 0 -2 -20 -5 -45 -7 -25 -3 -47 -9 -50 -12 -3 -4 -16
-8 -30 -8 -56 -3 -100 -9 -100 -14 0 -9 -43 -6 -58 3 -8 5 -11 4 -10 -4 2 -7
-8 -13 -23 -14 -14 -1 -34 -5 -43 -8 -12 -5 -16 -1 -16 18 0 13 5 27 10 30 6
4 9 12 8 18 -1 7 3 22 10 34 7 12 11 28 10 35 -2 7 2 12 7 11 6 -1 10 11 11
27 1 15 5 36 9 46 5 11 9 24 10 29 0 6 6 9 11 8 6 -1 11 4 11 12 0 8 -5 11
-10 8 -5 -3 -7 0 -3 8 3 8 9 22 12 32 4 9 10 17 15 17 5 0 5 7 2 17 -5 12 -3
14 8 8 11 -7 12 -6 2 7 -7 8 -9 18 -5 22 4 4 7 13 7 19 1 7 6 11 11 10 6 -1 9
8 7 21 -3 13 0 27 6 30 6 4 11 16 11 27 0 11 4 18 9 15 5 -4 7 2 5 11 -3 10 4
35 14 55 11 21 16 35 11 32 -5 -3 -9 0 -9 6 0 6 6 13 14 16 8 3 12 13 9 25 -3
10 0 19 6 19 6 0 10 3 10 8 -3 20 2 43 9 38 4 -2 8 3 9 12 2 24 13 74 19 84 3
5 11 5 17 2 9 -5 9 -4 1 5 -14 15 4 84 19 74 5 -3 6 3 3 15 -4 11 -2 23 4 27
6 3 7 11 4 17 -5 8 -1 9 11 4 15 -5 16 -4 6 8 -9 10 -9 16 -1 21 6 4 9 14 6
22 -4 11 -2 13 9 10 8 -4 17 -2 20 4 4 5 3 8 -2 7 -14 -5 -15 12 -2 45 6 18
11 38 10 45 -1 6 3 12 9 12 5 0 9 3 9 8 -1 4 0 9 1 12 4 12 11 46 12 60 0 8 5
20 9 26 6 7 3 16 -6 24 -8 7 -15 9 -15 4z m-1340 -979 c6 -4 8 -10 5 -15 -3
-4 4 -6 15 -3 11 3 20 0 20 -6 0 -6 7 -11 16 -11 9 0 12 -5 8 -12 -5 -7 -3 -8
6 -3 7 4 15 3 19 -2 3 -6 25 -20 48 -32 28 -14 40 -26 37 -35 -3 -8 -1 -17 5
-21 7 -3 8 0 5 9 -3 9 -1 16 5 16 6 0 11 -4 11 -9 0 -5 9 -11 20 -14 15 -4 18
-10 13 -24 -6 -15 -4 -16 9 -5 12 10 17 10 27 -1 6 -8 7 -18 3 -22 -4 -5 -2
-5 4 -2 11 6 84 -38 84 -51 0 -5 -6 -14 -12 -22 -7 -8 -4 -7 7 2 19 16 22 15
53 -13 18 -16 29 -29 25 -29 -5 -1 6 -7 24 -15 37 -16 65 -57 36 -52 -10 1
-24 6 -31 11 -8 4 -11 3 -10 -5 2 -6 -3 -14 -11 -17 -10 -3 -11 0 -5 9 6 11 5
12 -7 2 -8 -7 -33 -14 -54 -17 -22 -2 -40 -5 -40 -6 0 -1 -9 -3 -20 -4 -11 -2
-44 -6 -74 -10 -30 -4 -63 -10 -75 -12 -12 -3 -51 -8 -87 -11 -51 -4 -66 -2
-66 8 -1 32 -12 95 -19 113 -5 12 -4 17 3 13 5 -3 10 0 10 8 0 8 -4 12 -9 9
-6 -4 -12 49 -6 59 1 1 -4 12 -11 25 -9 16 -9 22 0 22 8 0 8 4 1 13 -6 6 -13
37 -17 67 -13 107 -13 109 7 105 10 -2 23 -7 28 -10z m108 -970 c-3 -3 -9 2
-12 12 -6 14 -5 15 5 6 7 -7 10 -15 7 -18z"/>
<path d="M2436 1172 c-3 -5 1 -9 9 -9 8 0 12 4 9 9 -3 4 -7 8 -9 8 -2 0 -6 -4
-9 -8z"/>
<path d="M1193 575 c0 -8 4 -12 9 -9 5 3 6 10 3 15 -9 13 -12 11 -12 -6z"/>
</g>
</svg>
