<svg viewBox="0 0 260 32" xmlns="http://www.w3.org/2000/svg"><path fill="#ced6dd" d="m6.94634146 9.05365854.07804878.07804878v4.60487808h.07804878c.93658537-2.5756098 3.27804878-4.68292686 6.63414638-4.68292686 4.4487805 0 5.6975609 2.18536586 5.6975609 6.32195126v8.2731707c0 2.497561.1560976 5.0731707.7804878 7.102439h-7.102439c.5463415-1.8731707.702439-4.1365854.702439-6.8682927v-7.8829268c0-1.9512195-.7804878-2.8097561-2.8878048-2.8097561-1.56097564 0-2.80975613.4682927-3.7463415 1.2487805v9.4439024c0 2.7317073.07804879 4.995122.70243903 6.8682927h-7.02439024c.62439024-1.9512195.7804878-4.5268293.7804878-7.102439v-7.6487805c0-2.1073171-.70243902-3.902439-1.56097561-4.9170732zm23.33658534 0c5.4634147 0 7.5707317 2.18536586 7.5707317 6.63414636v9.3658536c0 1.7170732.7024391 2.1853659 1.9512195 2.1853659.2341464 0 .9365854-.0780488 1.092683-.3121951-.0780488.6243902-.1560976.9365853-.3121951 1.3268292-.6243903 1.7170732-1.7170732 2.8878049-4.0585366 2.8878049-2.7317073 0-4.0585366-1.8731707-4.1365854-3.902439h-.0780488c-.9365853 2.7317073-2.6536585 3.902439-5.4634146 3.902439-3.3560976 0-5.6195122-2.0292683-5.6195122-5.3073171 0-3.3560975 3.0439024-4.8390243 6.2439024-6.0878048 3.0439025-1.2487805 4.6829269-2.1073171 4.6829269-4.2146342v-.4682927c0-2.3414634-.7024391-3.6682926-3.0439025-3.6682926-1.404878 0-1.9512195.6243902-2.2634146 1.9512195-.4682927 2.0292683-1.2487805 2.8097561-2.6536585 2.8097561-1.2487805 0-2.3414635-.8585366-2.3414635-2.3414635.0780488-2.7317073 4.1365854-4.76097556 8.4292683-4.76097556zm1.795122 17.56097556v-7.6487804c-.4682927.6243902-.9365854 1.0146341-2.5756098 1.7170731-1.9512195.9365854-2.7317073 2.0292683-2.7317073 4.292683 0 1.8731707 1.0146342 3.0439024 2.6536585 3.0439024 1.6390244 0 2.2634147-.5463415 2.6536586-1.4048781zm21.1512195 1.795122c-.702439 1.7170732-2.5756098 2.8097561-5.0731707 2.8097561-4.3707317 0-6.0878049-2.1853659-6.0878049-6.2439024v-12.4878049h-2.1073171v-.1560976l7.6487805-7.80487803.0780488.07804878v4.91707317h5.4634146l-.5463415 2.96585368h-4.8390243v11.6292683c0 2.2634146.9365853 3.1219512 2.9658536 3.1219512 1.5609756 0 2.3414634-.2341464 3.0439025-.5463415-.2341464.6243903-.3121952 1.092683-.5463415 1.7170732zm7.3365854-19.12195122v14.67317072c0 2.1853659.8585365 3.3560976 3.0439024 3.3560976 1.7951219 0 3.1219512-.5463415 3.902439-1.6390244v-9.8341464c0-2.1853658-.2341463-4.0585365-.9365853-5.8536585l6.5560975-.70243902v15.06341462c0 3.2780488.3121951 4.7609756.8585366 6.3219512h-6.3219512v-4.2146341h-.0780488c-.9365854 2.7317073-2.6536585 4.6829268-6.3219512 4.6829268-4.6829268 0-6.3219512-2.8097561-6.3219512-6.9463414v-8.3512196c0-2.1853658-.1560976-4.0585365-.9365854-5.8536585zm21.5414634 5.15121952c.9365853-3.902439 2.7317073-5.46341464 5.1512195-5.46341464 2.1853658 0 3.2780488 1.09268294 3.2780488 2.96585364 0 1.6390244-.9365854 2.9658537-2.6536586 2.9658537-.9365853 0-1.5609756-.4682927-1.9512195-.8585366-.5463414-.4682927-.8585366-.9365854-1.3268293-.9365854-1.0926829 0-2.3414634 1.8731708-2.3414634 5.1512195v5.3073171c0 2.6536585.1560976 5.2292683.7024391 7.1804878h-7.1024391c.6243903-1.9512195.7804878-4.5268293.7804878-7.102439v-7.6487805c0-2.1073171-.702439-3.902439-1.5609756-4.9170732l6.9463415-1.95121948.0780488.07804878zm17.7951219 16.702439c-5.4634146 0-9.9121951-3.6682927-9.9121951-10.5365854 0-7.0243902 4.2926829-11.70731702 10.0682931-11.70731702 5.463414 0 8.039024 3.51219512 8.039024 10.06829272h-12.4878049v.6243902c0 5.3073171 2.7317073 7.3365854 6.4780489 7.3365854 3.356097 0 4.917073-1.3268293 5.853658-2.3414634l.078049.3121951c-.858536 3.2780488-3.356097 6.2439024-8.117073 6.2439024zm-4.2146341-13.5804878 7.1024391-.6243902c-.078049-3.3560976-.546342-5.3853659-2.9658538-5.3853659-2.4195122 0-3.8243902 1.9512195-4.1365853 6.0097561zm24.6634151-8.50731706.078048.07804878v4.60487808h.078049c.936585-2.5756098 3.043903-4.68292686 6.4-4.68292686 3.82439 0 5.15122 1.71707316 5.463415 4.68292686h.078048c.936586-2.5756098 3.043903-4.68292686 6.321952-4.68292686 4.44878 0 5.541463 2.18536586 5.541463 6.32195126v8.2731707c0 2.497561.156098 5.0731707.780488 7.102439h-7.102439c.546341-1.8731707.702439-4.1365854.702439-6.8682927v-7.8829268c0-1.9512195-.546342-2.8097561-2.653659-2.8097561-1.639024 0-2.575609.3121951-3.512195 1.2487805v9.2097561c0 2.497561.156098 5.0731707.780488 7.102439h-7.102439c.546342-1.8731707.702439-4.1365854.702439-6.8682927v-7.8829268c0-1.9512195-.546341-2.8097561-2.653658-2.8097561-1.560976 0-2.497561.3121951-3.512196 1.2487805v9.4439024c0 2.7317073.078049 4.995122.702439 6.8682927h-7.102439c.624391-1.9512195.780488-4.5268293.780488-7.102439v-7.6487805c0-2.1073171-.702439-3.902439-1.560975-4.9170732zm35.902439 22.08780486c-5.463415 0-9.912196-3.6682927-9.912196-10.5365854 0-7.0243902 4.292683-11.70731702 10.068293-11.70731702 5.463415 0 8.039024 3.51219512 8.039024 10.06829272h-12.487804v.6243902c0 5.3073171 2.731707 7.3365854 6.478048 7.3365854 3.356098 0 4.917074-1.3268293 5.853659-2.3414634l.078049.3121951c-.780488 3.2780488-3.356098 6.2439024-8.117073 6.2439024zm-4.214635-13.5804878 7.102439-.6243902c-.078048-3.3560976-.546341-5.3853659-2.965853-5.3853659-2.341464 0-3.746342 1.9512195-4.136586 6.0097561zm26.146342 10.8487805c-.702439 1.7170732-2.57561 2.8097561-5.073171 2.8097561-4.370732 0-6.087805-2.1853659-6.087805-6.2439024v-12.4878049h-2.107317v-.1560976l7.648781-7.80487803.078048.07804878v4.91707317h5.463415l-.546341 3.04390248h-4.839025v11.6292683c0 2.2634146.936586 3.1219512 2.965854 3.1219512 1.560975 0 2.341463-.2341464 3.043902-.5463415-.156097.5463415-.312195 1.0146342-.546341 1.6390244zm7.492683-14.7512195h.078049c.936585-2.5756098 3.043902-4.68292684 6.478048-4.68292684 4.448781 0 5.697561 2.18536584 5.697561 6.32195124v8.2731707c0 2.497561.156098 5.0731707.780488 7.102439h-7.102439c.546342-1.8731707.702439-4.1365853.702439-6.8682927v-7.804878c0-1.9512195-.780488-2.8097561-2.887805-2.8097561-1.560975 0-2.887805.4682927-3.746341 1.2487805v9.4439024c0 2.7317073.078049 4.995122.702439 6.8682927h-7.102439c.62439-1.9512195.780488-4.5268293.780488-7.102439v-16.39024391c0-2.73170732-.702439-4.21463415-1.482927-5.30731708l7.180488-1.95121951.078048.07804878-.156097 5.69756098zm35.121951 6.4c0 6.8682927-4.917073 11.0829268-10.22439 11.0829268-5.385366 0-10.536586-4.0585366-10.536586-11.0829268 0-6.8682927 4.917074-11.08292684 10.224391-11.08292684 5.385365.07804878 10.536585 4.05853654 10.536585 11.08292684zm-6.165854.0780488c0-6.9463415-1.639024-8.5853659-4.44878-8.5853659-2.57561 0-4.058537 1.8731707-4.058537 8.3512195 0 6.9463415 1.639025 8.5853659 4.448781 8.5853659 2.57561.0780488 4.058536-1.795122 4.058536-8.3512195zm20.214634-18.18536589 7.258537-1.95121951.078049.07804878-.156098 5.6195122v17.95121952c0 3.1219512.312195 5.3853658.858537 7.0243902h-6.4v-3.6682927h-.078049c-.62439 1.795122-2.341463 4.0585366-5.697561 4.0585366-4.526829 0-8.429268-3.4341463-8.429268-10.5365853 0-8.1170732 5.697561-11.7073171 10.302439-11.7073171 1.717073 0 3.043902.31219512 3.746341.7804878v-2.73170732c0-2.73170731-.62439-3.82439024-1.482927-4.91707317zm1.482927 12.56585369c-.156097-1.8731708-1.326829-2.9658537-3.746341-2.9658537-2.731707 0-4.448781 2.5756098-4.448781 7.8829268 0 5.3073171 1.795122 8.195122 4.682927 8.195122 1.717073 0 3.043903-.6243903 3.512195-1.7170732zm21.15122-4.4487805.156097 4.4487805h-.078048c-1.560976-1.7170732-3.121952-2.9658537-5.697561-2.9658537-1.717074 0-2.809756.6243903-2.809756 2.1853659s.780487 2.1853658 4.214634 3.6682926c3.668292 1.4829269 5.853658 3.2 5.853658 6.7121952 0 3.6682927-1.951219 7.1804878-7.882927 7.1804878-2.497561 0-4.917073-.5463415-6.712195-1.4829269l-.234146-5.3853658h.156097c1.717074 2.1853658 4.136586 4.2926829 6.712196 4.2926829 2.575609 0 3.2-.9365853 3.2-2.6536585 0-1.8731707-.936586-2.3414634-4.292683-3.8243903-3.434147-1.4829268-5.77561-3.1219512-5.77561-6.7121951 0-4.0585366 3.2-6.47804876 7.336585-6.47804876 2.887805 0 4.52683.3902439 5.853659 1.01463416z"/></svg>
